<?xml version="1.0" encoding="UTF-8"?>
<svg xmlns="http://www.w3.org/2000/svg" xmlns:xlink="http://www.w3.org/1999/xlink" width="48px" height="36px" viewBox="0 0 48 36" version="1.1">
<g id="surface1">
<path style=" stroke:none;fill-rule:evenodd;fill:rgb(74.117647%,23.921569%,26.666667%);fill-opacity:1;" d="M 0 0 L 68.398438 0 L 68.398438 2.769531 L 0 2.769531 Z M 0 5.539062 L 68.398438 5.539062 L 68.398438 8.3125 L 0 8.3125 Z M 0 11.074219 L 68.398438 11.074219 L 68.398438 13.851562 L 0 13.851562 Z M 0 16.613281 L 68.398438 16.613281 L 68.398438 19.386719 L 0 19.386719 Z M 0 22.15625 L 68.398438 22.15625 L 68.398438 24.925781 L 0 24.925781 Z M 0 27.6875 L 68.398438 27.6875 L 68.398438 30.460938 L 0 30.460938 Z M 0 33.230469 L 68.398438 33.230469 L 68.398438 36 L 0 36 Z M 0 33.230469 "/>
<path style=" stroke:none;fill-rule:evenodd;fill:rgb(100%,100%,100%);fill-opacity:1;" d="M 0 2.769531 L 68.398438 2.769531 L 68.398438 5.539062 L 0 5.539062 Z M 0 8.3125 L 68.398438 8.3125 L 68.398438 11.074219 L 0 11.074219 Z M 0 13.84375 L 68.398438 13.84375 L 68.398438 16.613281 L 0 16.613281 Z M 0 19.386719 L 68.398438 19.386719 L 68.398438 22.15625 L 0 22.15625 Z M 0 24.925781 L 68.398438 24.925781 L 68.398438 27.695312 L 0 27.695312 Z M 0 30.460938 L 68.398438 30.460938 L 68.398438 33.230469 L 0 33.230469 Z M 0 30.460938 "/>
<path style=" stroke:none;fill-rule:evenodd;fill:rgb(9.803922%,18.431373%,36.470588%);fill-opacity:1;" d="M 0 0 L 27.359375 0 L 27.359375 19.386719 L 0 19.386719 Z M 0 0 "/>
<path style=" stroke:none;fill-rule:evenodd;fill:rgb(100%,100%,100%);fill-opacity:1;" d="M 2.277344 0.828125 L 2.53125 1.597656 L 3.332031 1.597656 L 2.6875 2.066406 L 2.933594 2.839844 L 2.277344 2.363281 L 1.632812 2.832031 L 1.878906 2.066406 L 1.222656 1.597656 L 2.039062 1.597656 Z M 6.839844 0.828125 L 7.085938 1.597656 L 7.894531 1.597656 L 7.242188 2.066406 L 7.488281 2.839844 L 6.839844 2.363281 L 6.1875 2.832031 L 6.433594 2.066406 L 5.785156 1.597656 L 6.589844 1.597656 Z M 11.398438 0.828125 L 11.652344 1.597656 L 12.445312 1.597656 L 11.796875 2.066406 L 12.042969 2.839844 L 11.390625 2.363281 L 10.742188 2.832031 L 10.988281 2.066406 L 10.335938 1.597656 L 11.144531 1.597656 Z M 15.960938 0.828125 L 16.207031 1.597656 L 17.015625 1.597656 L 16.363281 2.066406 L 16.613281 2.839844 L 15.960938 2.363281 L 15.308594 2.832031 L 15.558594 2.066406 L 14.90625 1.597656 L 15.707031 1.597656 Z M 20.515625 0.828125 L 20.769531 1.597656 L 21.570312 1.597656 L 20.925781 2.066406 L 21.171875 2.839844 L 20.515625 2.363281 L 19.871094 2.832031 L 20.117188 2.066406 L 19.46875 1.597656 L 20.269531 1.597656 Z M 25.082031 0.828125 L 25.328125 1.597656 L 26.136719 1.597656 L 25.480469 2.066406 L 25.734375 2.839844 L 25.082031 2.363281 L 24.425781 2.832031 L 24.679688 2.066406 L 24.027344 1.597656 L 24.835938 1.597656 Z M 4.5625 2.769531 L 4.808594 3.535156 L 5.617188 3.535156 L 4.964844 4.007812 L 5.203125 4.773438 L 4.570312 4.304688 L 3.917969 4.773438 L 4.148438 4.007812 L 3.515625 3.535156 L 4.316406 3.535156 Z M 9.121094 2.769531 L 9.371094 3.535156 L 10.175781 3.535156 L 9.519531 4.007812 L 9.773438 4.773438 L 9.121094 4.304688 L 8.464844 4.773438 L 8.71875 4.007812 L 8.066406 3.535156 L 8.875 3.535156 Z M 13.683594 2.769531 L 13.929688 3.535156 L 14.738281 3.535156 L 14.082031 4.007812 L 14.328125 4.773438 L 13.683594 4.304688 L 13.027344 4.773438 L 13.273438 4.007812 L 12.628906 3.535156 L 13.429688 3.535156 Z M 18.238281 2.769531 L 18.492188 3.535156 L 19.292969 3.535156 L 18.640625 4.007812 L 18.894531 4.773438 L 18.238281 4.304688 L 17.59375 4.773438 L 17.839844 4.007812 L 17.183594 3.535156 L 18 3.535156 Z M 22.800781 2.769531 L 23.046875 3.535156 L 23.855469 3.535156 L 23.203125 4.007812 L 23.449219 4.773438 L 22.800781 4.304688 L 22.148438 4.773438 L 22.394531 4.007812 L 21.746094 3.535156 L 22.550781 3.535156 Z M 2.277344 4.703125 L 2.53125 5.484375 L 3.332031 5.484375 L 2.6875 5.957031 L 2.933594 6.722656 L 2.277344 6.242188 L 1.632812 6.722656 L 1.878906 5.949219 L 1.222656 5.476562 L 2.039062 5.476562 Z M 6.839844 4.703125 L 7.085938 5.476562 L 7.894531 5.476562 L 7.242188 5.949219 L 7.488281 6.714844 L 6.839844 6.238281 L 6.1875 6.714844 L 6.433594 5.941406 L 5.785156 5.46875 L 6.589844 5.46875 Z M 11.398438 4.703125 L 11.652344 5.476562 L 12.445312 5.476562 L 11.796875 5.949219 L 12.042969 6.714844 L 11.390625 6.238281 L 10.742188 6.714844 L 10.988281 5.941406 L 10.335938 5.46875 L 11.144531 5.46875 Z M 15.960938 4.703125 L 16.207031 5.476562 L 17.015625 5.476562 L 16.363281 5.949219 L 16.613281 6.714844 L 15.960938 6.238281 L 15.308594 6.714844 L 15.558594 5.941406 L 14.90625 5.46875 L 15.707031 5.46875 Z M 20.515625 4.703125 L 20.769531 5.476562 L 21.570312 5.476562 L 20.925781 5.949219 L 21.171875 6.714844 L 20.515625 6.238281 L 19.871094 6.714844 L 20.117188 5.941406 L 19.46875 5.46875 L 20.269531 5.46875 Z M 25.082031 4.703125 L 25.328125 5.476562 L 26.136719 5.476562 L 25.480469 5.949219 L 25.734375 6.714844 L 25.082031 6.238281 L 24.425781 6.714844 L 24.679688 5.941406 L 24.027344 5.46875 L 24.835938 5.46875 Z M 4.5625 6.644531 L 4.808594 7.410156 L 5.617188 7.410156 L 4.964844 7.882812 L 5.210938 8.65625 L 4.5625 8.175781 L 3.910156 8.648438 L 4.15625 7.882812 L 3.507812 7.410156 L 4.308594 7.410156 Z M 9.121094 6.644531 L 9.371094 7.410156 L 10.175781 7.410156 L 9.519531 7.882812 L 9.773438 8.65625 L 9.121094 8.175781 L 8.464844 8.648438 L 8.71875 7.882812 L 8.066406 7.410156 L 8.875 7.410156 Z M 13.683594 6.644531 L 13.929688 7.410156 L 14.738281 7.410156 L 14.082031 7.882812 L 14.328125 8.65625 L 13.683594 8.175781 L 13.027344 8.648438 L 13.273438 7.882812 L 12.628906 7.410156 L 13.429688 7.410156 Z M 18.238281 6.644531 L 18.492188 7.410156 L 19.292969 7.410156 L 18.648438 7.882812 L 18.894531 8.65625 L 18.238281 8.175781 L 17.59375 8.648438 L 17.839844 7.882812 L 17.183594 7.410156 L 18 7.410156 Z M 22.800781 6.644531 L 23.046875 7.410156 L 23.855469 7.410156 L 23.203125 7.882812 L 23.449219 8.65625 L 22.800781 8.175781 L 22.148438 8.648438 L 22.394531 7.882812 L 21.746094 7.410156 L 22.550781 7.410156 Z M 2.277344 8.585938 L 2.53125 9.351562 L 3.332031 9.351562 L 2.6875 9.824219 L 2.933594 10.597656 L 2.277344 10.117188 L 1.632812 10.589844 L 1.878906 9.824219 L 1.222656 9.351562 L 2.039062 9.351562 Z M 6.839844 8.585938 L 7.085938 9.351562 L 7.894531 9.351562 L 7.242188 9.824219 L 7.488281 10.589844 L 6.839844 10.117188 L 6.1875 10.589844 L 6.433594 9.824219 L 5.785156 9.351562 L 6.589844 9.351562 Z M 11.398438 8.585938 L 11.652344 9.351562 L 12.445312 9.351562 L 11.796875 9.824219 L 12.042969 10.597656 L 11.390625 10.117188 L 10.742188 10.589844 L 10.988281 9.824219 L 10.335938 9.351562 L 11.144531 9.351562 Z M 15.960938 8.585938 L 16.207031 9.351562 L 17.015625 9.351562 L 16.363281 9.824219 L 16.613281 10.597656 L 15.960938 10.117188 L 15.308594 10.589844 L 15.558594 9.824219 L 14.90625 9.351562 L 15.707031 9.351562 Z M 20.515625 8.585938 L 20.769531 9.351562 L 21.570312 9.351562 L 20.925781 9.824219 L 21.171875 10.597656 L 20.515625 10.117188 L 19.871094 10.589844 L 20.117188 9.824219 L 19.46875 9.351562 L 20.269531 9.351562 Z M 25.082031 8.585938 L 25.328125 9.351562 L 26.136719 9.351562 L 25.480469 9.824219 L 25.734375 10.597656 L 25.082031 10.117188 L 24.425781 10.589844 L 24.679688 9.824219 L 24.027344 9.351562 L 24.835938 9.351562 Z M 4.5625 10.527344 L 4.808594 11.292969 L 5.617188 11.292969 L 4.964844 11.761719 L 5.210938 12.53125 L 4.5625 12.050781 L 3.910156 12.53125 L 4.15625 11.757812 L 3.507812 11.285156 L 4.308594 11.285156 Z M 9.121094 10.527344 L 9.371094 11.292969 L 10.175781 11.292969 L 9.519531 11.761719 L 9.773438 12.53125 L 9.121094 12.050781 L 8.464844 12.53125 L 8.71875 11.757812 L 8.066406 11.285156 L 8.875 11.285156 Z M 13.683594 10.527344 L 13.929688 11.292969 L 14.738281 11.292969 L 14.082031 11.761719 L 14.328125 12.53125 L 13.683594 12.050781 L 13.027344 12.53125 L 13.273438 11.757812 L 12.628906 11.285156 L 13.429688 11.285156 Z M 18.238281 10.527344 L 18.492188 11.292969 L 19.292969 11.292969 L 18.648438 11.761719 L 18.894531 12.53125 L 18.238281 12.050781 L 17.59375 12.53125 L 17.839844 11.757812 L 17.183594 11.285156 L 18 11.285156 Z M 22.800781 10.527344 L 23.046875 11.292969 L 23.855469 11.292969 L 23.203125 11.761719 L 23.449219 12.53125 L 22.800781 12.050781 L 22.148438 12.53125 L 22.394531 11.757812 L 21.746094 11.285156 L 22.550781 11.285156 Z M 2.277344 12.460938 L 2.53125 13.234375 L 3.332031 13.234375 L 2.6875 13.703125 L 2.933594 14.464844 L 2.277344 13.992188 L 1.632812 14.464844 L 1.878906 13.695312 L 1.222656 13.226562 L 2.039062 13.226562 Z M 6.839844 12.460938 L 7.085938 13.234375 L 7.894531 13.234375 L 7.242188 13.703125 L 7.496094 14.464844 L 6.839844 13.992188 L 6.1875 14.464844 L 6.441406 13.695312 L 5.785156 13.226562 L 6.589844 13.226562 Z M 11.398438 12.460938 L 11.652344 13.234375 L 12.445312 13.234375 L 11.796875 13.703125 L 12.042969 14.464844 L 11.390625 13.992188 L 10.742188 14.464844 L 10.988281 13.695312 L 10.335938 13.226562 L 11.144531 13.226562 Z M 15.960938 12.460938 L 16.207031 13.234375 L 17.015625 13.234375 L 16.363281 13.703125 L 16.613281 14.464844 L 15.960938 13.992188 L 15.308594 14.464844 L 15.558594 13.695312 L 14.90625 13.226562 L 15.707031 13.226562 Z M 20.515625 12.460938 L 20.769531 13.234375 L 21.570312 13.234375 L 20.925781 13.703125 L 21.171875 14.464844 L 20.515625 13.992188 L 19.871094 14.464844 L 20.117188 13.695312 L 19.46875 13.226562 L 20.269531 13.226562 Z M 25.082031 12.460938 L 25.328125 13.234375 L 26.136719 13.234375 L 25.480469 13.703125 L 25.734375 14.464844 L 25.082031 13.992188 L 24.425781 14.464844 L 24.679688 13.695312 L 24.027344 13.226562 L 24.835938 13.226562 Z M 4.5625 14.398438 L 4.808594 15.167969 L 5.617188 15.167969 L 4.964844 15.636719 L 5.210938 16.410156 L 4.5625 15.933594 L 3.910156 16.402344 L 4.15625 15.636719 L 3.507812 15.167969 L 4.308594 15.167969 Z M 9.121094 14.398438 L 9.371094 15.167969 L 10.175781 15.167969 L 9.519531 15.636719 L 9.773438 16.410156 L 9.121094 15.933594 L 8.464844 16.402344 L 8.71875 15.636719 L 8.066406 15.167969 L 8.875 15.167969 Z M 13.683594 14.398438 L 13.929688 15.167969 L 14.738281 15.167969 L 14.082031 15.636719 L 14.328125 16.410156 L 13.683594 15.933594 L 13.027344 16.402344 L 13.273438 15.636719 L 12.628906 15.167969 L 13.429688 15.167969 Z M 18.238281 14.398438 L 18.492188 15.167969 L 19.292969 15.167969 L 18.648438 15.636719 L 18.894531 16.410156 L 18.238281 15.933594 L 17.59375 16.402344 L 17.839844 15.636719 L 17.183594 15.167969 L 18 15.167969 Z M 22.800781 14.398438 L 23.046875 15.167969 L 23.855469 15.167969 L 23.203125 15.636719 L 23.449219 16.410156 L 22.800781 15.933594 L 22.148438 16.402344 L 22.394531 15.636719 L 21.746094 15.167969 L 22.550781 15.167969 Z M 2.277344 16.339844 L 2.53125 17.105469 L 3.332031 17.105469 L 2.6875 17.578125 L 2.933594 18.34375 L 2.277344 17.875 L 1.632812 18.34375 L 1.878906 17.570312 L 1.222656 17.101562 L 2.039062 17.101562 Z M 6.839844 16.339844 L 7.085938 17.105469 L 7.894531 17.105469 L 7.242188 17.578125 L 7.496094 18.34375 L 6.839844 17.875 L 6.1875 18.34375 L 6.441406 17.570312 L 5.785156 17.101562 L 6.589844 17.101562 Z M 11.398438 16.339844 L 11.652344 17.105469 L 12.445312 17.105469 L 11.8125 17.578125 L 12.058594 18.34375 L 11.40625 17.875 L 10.757812 18.34375 L 11.003906 17.570312 L 10.351562 17.101562 L 11.160156 17.101562 Z M 15.960938 16.339844 L 16.207031 17.105469 L 17.015625 17.105469 L 16.363281 17.578125 L 16.613281 18.34375 L 15.960938 17.875 L 15.308594 18.34375 L 15.558594 17.570312 L 14.90625 17.101562 L 15.707031 17.101562 Z M 20.515625 16.339844 L 20.769531 17.105469 L 21.570312 17.105469 L 20.925781 17.578125 L 21.171875 18.34375 L 20.515625 17.875 L 19.871094 18.34375 L 20.117188 17.570312 L 19.46875 17.101562 L 20.269531 17.101562 Z M 25.082031 16.339844 L 25.328125 17.105469 L 26.136719 17.105469 L 25.480469 17.578125 L 25.734375 18.34375 L 25.082031 17.875 L 24.425781 18.34375 L 24.679688 17.570312 L 24.027344 17.101562 L 24.835938 17.101562 Z M 25.082031 16.339844 "/>
</g>
</svg>
